# xmcd
#
# Track frame offsets: 
#        150
#        23364
#        54416
#        75118
#        94357
#        112183
#        126360
#        144170
#        162172
#        190336
#        210775
#        226827
#        243335
#        258505
#        278320
#
# Disc length: 3885 seconds
#
# Revision: 0
# Processed by: cddbd v1.4PL0 Copyright (c) Steve Scherf et al.
# Submitted via: ExactAudioCopy v0.95a3
#
DISCID=b40f2b0f
DTITLE=Various Artist - ≈∑√¿ª≥æ…æ≠µ‰
DYEAR=1998
DGENRE=pop
TTITLE0=my heart will go on
TTITLE1=hotel california
TTITLE2=casablanca
TTITLE3=right here waiting
TTITLE4=Say You Say Me
TTITLE5=Rhythm Of The Rain
TTITLE6=Yesterday Once More
TTITLE7=Rivers Of Babylon
TTITLE8=I Just Called to say I Love You
TTITLE9=I Will Always Love You
TTITLE10=Never Gonna Give You Up
TTITLE11=Unchained Melody
TTITLE12=Because I Love You
TTITLE13=Sailing
TTITLE14=When A Man Loves A Woman
EXTD=
EXTT0=
EXTT1=
EXTT2=
EXTT3=
EXTT4=
EXTT5=
EXTT6=
EXTT7=
EXTT8=
EXTT9=
EXTT10=
EXTT11=
EXTT12=
EXTT13=
EXTT14=
PLAYORDER=
